<?xml version="1.0" encoding="UTF-8" standalone="no"?>
<!--
  wordchipper logo
  Canvas: 392×144, uniform margin 14px
  Illustration: translate(7.18,2.06) scale(1.706) — original paths verbatim
  illus right=134, bottom=130; text x=148, fs=56, word y=54, chipper y=118
-->

<svg
   width="706.91754pt"
   height="313.66165pt"
   viewBox="0 0 942.55672 418.21553"
   version="1.1"
   id="svg30"
   sodipodi:docname="logo.svg"
   inkscape:version="1.4.3 (0d15f75042, 2025-12-25)"
   inkscape:export-filename="logo.png"
   inkscape:export-xdpi="96"
   inkscape:export-ydpi="96"
   xmlns:inkscape="http://www.inkscape.org/namespaces/inkscape"
   xmlns:sodipodi="http://sodipodi.sourceforge.net/DTD/sodipodi-0.dtd"
   xmlns="http://www.w3.org/2000/svg"
   xmlns:svg="http://www.w3.org/2000/svg">
  <sodipodi:namedview
     id="namedview30"
     pagecolor="#ffffff"
     bordercolor="#000000"
     borderopacity="0.25"
     inkscape:showpageshadow="2"
     inkscape:pageopacity="0.0"
     inkscape:pagecheckerboard="0"
     inkscape:deskcolor="#d1d1d1"
     inkscape:zoom="0.8"
     inkscape:cx="284.375"
     inkscape:cy="-198.75"
     inkscape:window-width="1857"
     inkscape:window-height="1214"
     inkscape:window-x="1786"
     inkscape:window-y="101"
     inkscape:window-maximized="0"
     inkscape:current-layer="svg30"
     showguides="true"
     inkscape:document-units="pt">
    <sodipodi:guide
       position="-19.497986,431.90097"
       orientation="1,0"
       id="guide1"
       inkscape:locked="false" />
    <sodipodi:guide
       position="0.0016808708,534.65831"
       orientation="1,0"
       id="guide2"
       inkscape:locked="false" />
    <sodipodi:guide
       position="1072.5284,974.64221"
       orientation="1,0"
       id="guide3"
       inkscape:locked="false" />
    <sodipodi:guide
       position="630.64758,640.4433"
       orientation="0,-1"
       id="guide4"
       inkscape:locked="false" />
    <sodipodi:guide
       position="710.38345,213.42823"
       orientation="0,-1"
       id="guide5"
       inkscape:locked="false" />
  </sodipodi:namedview>
  <defs
     id="defs5">
    <linearGradient
       id="bgGrad"
       x1="0"
       y1="0"
       x2="237.58788"
       y2="237.58788"
       gradientTransform="matrix(3.9427655,0,0,1.7411797,109.73781,109.40841)"
       gradientUnits="userSpaceOnUse">
      <stop
         offset="0%"
         stop-color="#0F0A06"
         id="stop1" />
      <stop
         offset="100%"
         stop-color="#1A0E07"
         id="stop2" />
    </linearGradient>
    <filter
       id="chipGlow"
       x="-0.10110683"
       y="-0.056611501"
       width="1.2022136"
       height="1.113223">
      <feGaussianBlur
         stdDeviation="1.0"
         result="blur"
         id="feGaussianBlur2" />
      <feMerge
         id="feMerge3">
        <feMergeNode
           in="blur"
           id="feMergeNode2" />
        <feMergeNode
           in="SourceGraphic"
           id="feMergeNode3" />
      </feMerge>
    </filter>
    <filter
       id="gearGlow"
       x="-0.16654193"
       y="-0.1655471"
       width="1.3319297"
       height="1.3310941">
      <feGaussianBlur
         stdDeviation="2.4"
         result="blur"
         id="feGaussianBlur3" />
      <feMerge
         id="feMerge5">
        <feMergeNode
           in="blur"
           id="feMergeNode4" />
        <feMergeNode
           in="SourceGraphic"
           id="feMergeNode5" />
      </feMerge>
    </filter>
    <clipPath
       id="clip">
      <rect
         width="64"
         height="64"
         rx="10"
         id="rect1"
         x="0"
         y="0" />
    </clipPath>
    <radialGradient
       id="vig"
       cx="32"
       cy="32"
       r="32"
       fx="32"
       fy="32"
       gradientUnits="userSpaceOnUse">
      <stop
         offset="30%"
         stop-color="#111318"
         stop-opacity="0"
         id="stop1-3" />
      <stop
         offset="100%"
         stop-color="#111318"
         stop-opacity="0.4"
         id="stop2-6" />
    </radialGradient>
    <clipPath
       id="clipPath2">
      <rect
         width="64"
         height="64"
         rx="10"
         id="rect2"
         x="0"
         y="0" />
    </clipPath>
    <clipPath
       id="clipPath3">
      <rect
         width="64"
         height="64"
         rx="10"
         id="rect3"
         x="0"
         y="0" />
    </clipPath>
    <clipPath
       id="clipPath4">
      <rect
         width="64"
         height="64"
         rx="10"
         id="rect4"
         x="0"
         y="0" />
    </clipPath>
  </defs>
  <!-- Background -->
  <!-- Illustration: scale=1.706, translate(7.18,2.06)
       orig bounds x:4–74.6, y:7–75
       → left=14, top=14, right=134, bottom=130  (margin=14 all sides) -->
  <!-- end illustration -->
  <!-- TYPE
       font-size=56, x=148
       word  baseline y=54  (cap top at y=14)
       chipper baseline y=118 (descender bottom at y=130 = H-M) -->
  <rect
     width="938.40631"
     height="414.06512"
     rx="23.938936"
     fill="none"
     stroke="#2a1608"
     stroke-width="4.15042"
     id="rect6"
     x="2.0752101"
     y="2.0752101"
     style="fill:#ffffff;fill-opacity:1" />
  <g
     id="g30"
     transform="matrix(2.8728,0,0,2.8728,25.294501,16.37621)">
    <text
       x="140.90469"
       y="123.2738"
       font-family="Georgia, 'Times New Roman', serif"
       font-size="56px"
       font-weight="900"
       letter-spacing="-1"
       fill="#f0e8d8"
       id="text29-8"
       style="font-size:24px;fill:#5a5bbf;fill-opacity:1"
       inkscape:label="rust tokenizer"><tspan
         style="fill:#5a5bbf;fill-opacity:1"
         id="tspan30">rust tokenizer</tspan></text>
    <path
       d="m 162.07004,88.988419 q -1.17187,0.9375 -3.25521,1.458333 -2.05729,0.520833 -4.24479,0.520833 -6.53645,0 -9.79166,-3.15104 -3.22916,-3.15104 -3.22916,-9.635411 0,-4.036456 1.45833,-6.901037 1.48438,-2.890624 4.21875,-4.401039 2.73437,-1.536458 6.35416,-1.536458 3.64583,0 7.94271,0.911458 v 7.239579 h -1.875 l -1.09375,-4.296872 q -0.88542,-0.651042 -1.74479,-0.911458 -0.85938,-0.260417 -2.26563,-0.260417 -1.53645,0 -2.78645,1.223958 -1.25,1.223958 -1.95313,3.463539 -0.67708,2.213541 -0.67708,5.312497 0,5.234372 1.61458,7.473954 1.64063,2.239582 5.18229,2.239582 3.59375,0 6.14583,-0.755208 z m 11.68228,-24.92186 q 0,1.718749 -0.15625,4.062498 l 1.79688,-0.911458 q 3.69791,-1.874999 6.64062,-1.874999 6.77083,0 6.77083,7.213538 v 15.572907 l 2.44791,0.625 v 1.718749 h -12.16145 v -1.718749 l 2.1875,-0.625 V 73.571762 q 0,-2.187499 -0.9375,-3.411456 -0.91146,-1.223958 -2.6302,-1.223958 -1.97917,0 -3.95834,0.885416 v 18.307281 l 2.23959,0.625 v 1.718749 h -12.16145 v -1.718749 l 2.39583,-0.625 V 55.811356 l -2.5,-0.625 v -1.718749 h 10.02603 z m 28.66144,24.062486 2.68229,0.625 v 1.718749 h -12.86457 v -1.718749 l 2.65625,-0.625 V 68.33739 l -2.5,-0.625 v -1.718748 h 10.02603 z M 194.62731,57.45198 q 0,-1.692707 1.17188,-2.83854 1.19791,-1.145833 2.83854,-1.145833 1.66666,0 2.81249,1.171875 1.17188,1.145832 1.17188,2.812498 0,1.640624 -1.14583,2.83854 -1.14584,1.171874 -2.83854,1.171874 -1.66667,0 -2.83854,-1.145832 -1.17188,-1.171875 -1.17188,-2.864582 z m 20.90103,9.791661 q 2.78646,-1.901041 6.77083,-1.901041 5.10416,0 7.57812,2.99479 2.5,2.99479 2.5,9.453119 0,6.406247 -2.89063,9.817703 -2.89062,3.385415 -8.30728,3.385415 -2.76042,0 -5.57292,-0.703125 0.15625,1.718749 0.15625,3.854164 v 5.338539 l 3.59375,0.624995 v 1.71875 h -13.77603 v -1.71875 l 2.65625,-0.624995 V 68.33739 l -2.68229,-0.625 v -1.718748 h 9.92187 z m 9.21874,10.72916 q 0,-9.739577 -4.53124,-9.739577 -2.42188,0 -4.45313,0.989582 v 18.463531 q 2.10938,0.546875 4.40104,0.546875 4.58333,0 4.58333,-10.260411 z m 19.4427,-10.72916 q 2.78645,-1.901041 6.77083,-1.901041 5.10416,0 7.57812,2.99479 2.5,2.99479 2.5,9.453119 0,6.406247 -2.89063,9.817703 -2.89062,3.385415 -8.30728,3.385415 -2.76042,0 -5.57292,-0.703125 0.15625,1.718749 0.15625,3.854164 v 5.338539 l 3.59375,0.624995 v 1.71875 h -13.77603 v -1.71875 l 2.65625,-0.624995 V 68.33739 l -2.6823,-0.625 v -1.718748 h 9.92187 z m 9.21874,10.72916 q 0,-9.739577 -4.53125,-9.739577 -2.42187,0 -4.45312,0.989582 v 18.463531 q 2.10938,0.546875 4.40104,0.546875 4.58333,0 4.58333,-10.260411 z m 21.65624,-12.578117 q 4.97395,0 7.18749,2.656248 2.23958,2.656248 2.23958,8.255203 v 2.135416 H 271.6533 v 0.416666 q 0,3.880206 0.625,5.52083 0.625,1.640624 2.03125,2.499999 1.40625,0.859374 3.85416,0.859374 2.29167,0 5.78125,-0.755208 v 2.005207 q -1.43229,0.859375 -3.72396,1.432291 -2.26562,0.546875 -4.42708,0.546875 -6.01562,0 -8.90624,-3.124998 -2.86458,-3.15104 -2.86458,-9.739578 0,-6.406246 2.73437,-9.557286 2.76041,-3.151039 8.30729,-3.151039 z m -0.28646,2.630206 q -1.5625,0 -2.34375,1.692708 -0.75521,1.692707 -0.75521,5.989579 h 5.67708 q 0,-3.489581 -0.23437,-4.89583 -0.23438,-1.432291 -0.8073,-2.109374 -0.54687,-0.677083 -1.53645,-0.677083 z m 22.09894,3.046873 q 2.8125,-3.124998 5.02604,-4.479164 2.23958,-1.380207 4.08854,-1.380207 h 1.40625 v 8.932286 h -1.45833 l -1.53646,-3.281248 q -1.64063,0 -3.72396,0.729166 -2.08333,0.703125 -3.67187,1.666666 v 14.869783 l 3.93229,0.625 v 1.718749 h -14.63541 v -1.718749 l 3.17708,-0.625 V 68.33739 l -3.17708,-0.625 v -1.718748 h 10.28645 z"
       id="text2"
       style="font-weight:900;font-size:53.3333px;font-family:Georgia, 'Times New Roman', serif;letter-spacing:-1;fill:none;stroke:#5f0016;stroke-width:4.64123;stroke-dasharray:none;stroke-opacity:1"
       inkscape:label="chipper"
       aria-label="chipper" />
    <text
       x="139.7263"
       y="90.472794"
       font-family="Georgia, 'Times New Roman', serif"
       font-size="56px"
       font-weight="900"
       letter-spacing="-1"
       fill="#f07030"
       id="text30"
       style="font-size:53.3333px;fill:#ff5078;fill-opacity:1"
       inkscape:label="chipper">chipper</text>
    <path
       d="m 164.15338,26.121034 5.65104,13.932284 4.73958,-14.03645 -2.86458,-0.625 v -1.718749 h 7.9427 v 1.718749 l -1.875,0.520833 -8.22916,22.760403 h -3.15104 l -5.59896,-13.72395 -5.57291,13.72395 h -3.15104 l -8.67187,-22.656236 -1.82292,-0.625 v -1.718749 h 12.10937 v 1.718749 l -2.91666,0.677083 5.26041,13.984367 5.67708,-13.932284 z m 39.3906,9.661453 q 0,6.588538 -2.83854,9.739578 -2.8125,3.151039 -8.61979,3.151039 -5.62499,0 -8.38541,-3.177081 -2.76041,-3.203123 -2.76041,-9.713536 0,-6.484371 2.78645,-9.609369 2.8125,-3.15104 8.56771,-3.15104 5.80728,0 8.51562,3.255206 2.73437,3.229165 2.73437,9.505203 z m -7.6302,0 q 0,-5.729163 -0.85938,-7.916662 -0.83333,-2.21354 -2.91666,-2.21354 -2.00521,0 -2.78646,2.109373 -0.78125,2.109374 -0.78125,8.020829 0,6.015621 0.78125,8.151037 0.80729,2.135415 2.78646,2.135415 2.05729,0 2.91666,-2.239582 0.85938,-2.265623 0.85938,-8.04687 z m 20.66665,-7.031246 q 2.8125,-3.124998 5.02604,-4.479164 2.23958,-1.380207 4.08853,-1.380207 h 1.40625 v 8.932286 h -1.45833 l -1.53646,-3.281248 q -1.64062,0 -3.72395,0.729166 -2.08333,0.703125 -3.67187,1.666666 v 14.869783 l 3.93228,0.624999 v 1.718749 h -14.6354 v -1.718749 l 3.17708,-0.624999 V 26.016868 l -3.17708,-0.625 v -1.718749 h 10.28645 z m 29.75519,18.020823 q -1.45834,0.937499 -2.23959,1.249999 -0.78125,0.286458 -1.77083,0.46875 -0.98958,0.182291 -2.1875,0.182291 -5.41666,0 -8.07291,-3.098956 -2.65625,-3.124998 -2.65625,-9.583328 0,-6.354163 2.83854,-9.661452 2.86458,-3.30729 8.28125,-3.30729 2.83854,0 5.72916,0.703124 -0.15625,-0.859374 -0.15625,-4.036455 v -6.197913 l -2.5,-0.625 v -1.718749 h 10.02604 v 34.661438 l 2.68229,0.624999 v 1.718749 h -9.42708 z m -9.29687,-10.989577 q 0,4.869789 1.22395,7.447912 1.22396,2.552082 3.51563,2.552082 2.08333,0 4.32291,-1.119791 V 26.225201 q -2.03125,-0.546875 -4.11458,-0.546875 -2.34375,0 -3.64583,2.578124 -1.30208,2.552082 -1.30208,7.526037 z"
       id="text29"
       style="font-weight:900;font-size:53.3333px;font-family:Georgia, 'Times New Roman', serif;letter-spacing:-1;fill:#0a4c5f;fill-opacity:1;stroke:#094556;stroke-width:4.64123;stroke-dasharray:none;stroke-opacity:1"
       inkscape:label="word"
       aria-label="word" />
    <text
       x="141.39297"
       y="48.152271"
       font-family="Georgia, 'Times New Roman', serif"
       font-size="56px"
       font-weight="900"
       letter-spacing="-1"
       fill="#f0e8d8"
       id="text1"
       style="font-size:53.3333px;fill:#3bc4eb;fill-opacity:1"
       inkscape:label="word">word</text>
  </g>
  <g
     id="g1"
     transform="matrix(6,0,0,6,17.778381,18.60778)"
     style="display:inline">
    <rect
       width="64"
       height="64"
       rx="10"
       fill="#111318"
       id="rect5-7"
       x="0"
       y="0"
       style="display:inline" />
    <g
       clip-path="url(#clip)"
       id="g64"
       style="stroke:#2b39f0;stroke-width:0.5;stroke-dasharray:none;stroke-opacity:1">
      <rect
         x="1"
         y="1"
         width="8"
         height="5"
         rx="1.2"
         fill="#ff3b82"
         id="rect6-5"
         style="stroke:#2b39f0;stroke-width:0.5;stroke-dasharray:none;stroke-opacity:1" />
      <rect
         x="11"
         y="1"
         width="5"
         height="5"
         rx="1.2"
         fill="#00e5ff"
         id="rect7"
         style="stroke:#2b39f0;stroke-width:0.5;stroke-dasharray:none;stroke-opacity:1" />
      <rect
         x="18"
         y="1"
         width="9"
         height="5"
         rx="1.2"
         fill="#aaff00"
         id="rect8"
         style="stroke:#2b39f0;stroke-width:0.5;stroke-dasharray:none;stroke-opacity:1" />
      <rect
         x="29"
         y="1"
         width="6"
         height="5"
         rx="1.2"
         fill="#cc00ff"
         id="rect9"
         style="stroke:#2b39f0;stroke-width:0.5;stroke-dasharray:none;stroke-opacity:1" />
      <rect
         x="37"
         y="1"
         width="10"
         height="5"
         rx="1.2"
         fill="#ffe500"
         id="rect10"
         style="stroke:#2b39f0;stroke-width:0.5;stroke-dasharray:none;stroke-opacity:1" />
      <rect
         x="49"
         y="1"
         width="6"
         height="5"
         rx="1.2"
         fill="#ff3b82"
         id="rect11"
         style="stroke:#2b39f0;stroke-width:0.5;stroke-dasharray:none;stroke-opacity:1" />
      <rect
         x="57"
         y="1"
         width="6"
         height="5"
         rx="1.2"
         fill="#00ffc8"
         id="rect12"
         style="stroke:#2b39f0;stroke-width:0.5;stroke-dasharray:none;stroke-opacity:1" />
      <rect
         x="1"
         y="8"
         width="6"
         height="5"
         rx="1.2"
         fill="#aaff00"
         id="rect13"
         style="stroke:#2b39f0;stroke-width:0.5;stroke-dasharray:none;stroke-opacity:1" />
      <rect
         x="9"
         y="8"
         width="10"
         height="5"
         rx="1.2"
         fill="#ff3b82"
         id="rect14"
         style="stroke:#2b39f0;stroke-width:0.5;stroke-dasharray:none;stroke-opacity:1" />
      <rect
         x="21"
         y="8"
         width="5"
         height="5"
         rx="1.2"
         fill="#ffe500"
         id="rect15"
         style="stroke:#2b39f0;stroke-width:0.5;stroke-dasharray:none;stroke-opacity:1" />
      <rect
         x="28"
         y="8"
         width="8"
         height="5"
         rx="1.2"
         fill="#00e5ff"
         id="rect16"
         style="stroke:#2b39f0;stroke-width:0.5;stroke-dasharray:none;stroke-opacity:1" />
      <rect
         x="38"
         y="8"
         width="6"
         height="5"
         rx="1.2"
         fill="#cc00ff"
         id="rect17-3"
         style="stroke:#2b39f0;stroke-width:0.5;stroke-dasharray:none;stroke-opacity:1" />
      <rect
         x="46"
         y="8"
         width="9"
         height="5"
         rx="1.2"
         fill="#aaff00"
         id="rect18-5"
         style="stroke:#2b39f0;stroke-width:0.5;stroke-dasharray:none;stroke-opacity:1" />
      <rect
         x="57"
         y="8"
         width="6"
         height="5"
         rx="1.2"
         fill="#ff6b00"
         id="rect19-6"
         style="stroke:#2b39f0;stroke-width:0.5;stroke-dasharray:none;stroke-opacity:1" />
      <rect
         x="1"
         y="15"
         width="9"
         height="5"
         rx="1.2"
         fill="#00e5ff"
         id="rect20-2"
         style="stroke:#2b39f0;stroke-width:0.5;stroke-dasharray:none;stroke-opacity:1" />
      <rect
         x="12"
         y="15"
         width="5"
         height="5"
         rx="1.2"
         fill="#ff3b82"
         id="rect21-9"
         style="stroke:#2b39f0;stroke-width:0.5;stroke-dasharray:none;stroke-opacity:1" />
      <rect
         x="19"
         y="15"
         width="8"
         height="5"
         rx="1.2"
         fill="#ffe500"
         id="rect22-1"
         style="stroke:#2b39f0;stroke-width:0.5;stroke-dasharray:none;stroke-opacity:1" />
      <rect
         x="29"
         y="15"
         width="10"
         height="5"
         rx="1.2"
         fill="#00ffc8"
         id="rect23-2"
         style="stroke:#2b39f0;stroke-width:0.5;stroke-dasharray:none;stroke-opacity:1" />
      <rect
         x="41"
         y="15"
         width="6"
         height="5"
         rx="1.2"
         fill="#ff3b82"
         id="rect24-7"
         style="stroke:#2b39f0;stroke-width:0.5;stroke-dasharray:none;stroke-opacity:1" />
      <rect
         x="49"
         y="15"
         width="7"
         height="5"
         rx="1.2"
         fill="#cc00ff"
         id="rect25-0"
         style="stroke:#2b39f0;stroke-width:0.5;stroke-dasharray:none;stroke-opacity:1" />
      <rect
         x="58"
         y="15"
         width="5"
         height="5"
         rx="1.2"
         fill="#aaff00"
         id="rect26-9"
         style="stroke:#2b39f0;stroke-width:0.5;stroke-dasharray:none;stroke-opacity:1" />
      <rect
         x="1"
         y="22"
         width="5"
         height="5"
         rx="1.2"
         fill="#ffe500"
         id="rect27-3"
         style="stroke:#2b39f0;stroke-width:0.5;stroke-dasharray:none;stroke-opacity:1" />
      <rect
         x="8"
         y="22"
         width="9"
         height="5"
         rx="1.2"
         fill="#00ffc8"
         id="rect28-6"
         style="stroke:#2b39f0;stroke-width:0.5;stroke-dasharray:none;stroke-opacity:1" />
      <rect
         x="19"
         y="22"
         width="6"
         height="5"
         rx="1.2"
         fill="#ff3b82"
         id="rect29"
         style="stroke:#2b39f0;stroke-width:0.5;stroke-dasharray:none;stroke-opacity:1" />
      <rect
         x="27"
         y="22"
         width="4"
         height="5"
         rx="1.2"
         fill="#00e5ff"
         id="rect30"
         style="stroke:#2b39f0;stroke-width:0.5;stroke-dasharray:none;stroke-opacity:1" />
      <rect
         x="38"
         y="22"
         width="8"
         height="5"
         rx="1.2"
         fill="#aaff00"
         id="rect31"
         style="stroke:#2b39f0;stroke-width:0.5;stroke-dasharray:none;stroke-opacity:1" />
      <rect
         x="48"
         y="22"
         width="6"
         height="5"
         rx="1.2"
         fill="#ffe500"
         id="rect32"
         style="stroke:#2b39f0;stroke-width:0.5;stroke-dasharray:none;stroke-opacity:1" />
      <rect
         x="56"
         y="22"
         width="7"
         height="5"
         rx="1.2"
         fill="#ff6b00"
         id="rect33"
         style="stroke:#2b39f0;stroke-width:0.5;stroke-dasharray:none;stroke-opacity:1" />
      <rect
         x="1"
         y="29"
         width="8"
         height="5"
         rx="1.2"
         fill="#cc00ff"
         id="rect34"
         style="stroke:#2b39f0;stroke-width:0.5;stroke-dasharray:none;stroke-opacity:1" />
      <rect
         x="11"
         y="29"
         width="6"
         height="5"
         rx="1.2"
         fill="#ff3b82"
         id="rect35"
         style="stroke:#2b39f0;stroke-width:0.5;stroke-dasharray:none;stroke-opacity:1" />
      <rect
         x="19"
         y="29"
         width="4"
         height="5"
         rx="1.2"
         fill="#00e5ff"
         id="rect36"
         style="stroke:#2b39f0;stroke-width:0.5;stroke-dasharray:none;stroke-opacity:1" />
      <rect
         x="40"
         y="29"
         width="9"
         height="5"
         rx="1.2"
         fill="#aaff00"
         id="rect37"
         style="stroke:#2b39f0;stroke-width:0.5;stroke-dasharray:none;stroke-opacity:1" />
      <rect
         x="51"
         y="29"
         width="6"
         height="5"
         rx="1.2"
         fill="#ffe500"
         id="rect38"
         style="stroke:#2b39f0;stroke-width:0.5;stroke-dasharray:none;stroke-opacity:1" />
      <rect
         x="59"
         y="29"
         width="4"
         height="5"
         rx="1.2"
         fill="#ff3b82"
         id="rect39"
         style="stroke:#2b39f0;stroke-width:0.5;stroke-dasharray:none;stroke-opacity:1" />
      <rect
         x="1"
         y="36"
         width="6"
         height="5"
         rx="1.2"
         fill="#ff6b00"
         id="rect40"
         style="stroke:#2b39f0;stroke-width:0.5;stroke-dasharray:none;stroke-opacity:1" />
      <rect
         x="9"
         y="36"
         width="9"
         height="5"
         rx="1.2"
         fill="#00ffc8"
         id="rect41"
         style="stroke:#2b39f0;stroke-width:0.5;stroke-dasharray:none;stroke-opacity:1" />
      <rect
         x="20"
         y="36"
         width="5"
         height="5"
         rx="1.2"
         fill="#cc00ff"
         id="rect42"
         style="stroke:#2b39f0;stroke-width:0.5;stroke-dasharray:none;stroke-opacity:1" />
      <rect
         x="27"
         y="36"
         width="6"
         height="5"
         rx="1.2"
         fill="#ff3b82"
         id="rect43"
         style="stroke:#2b39f0;stroke-width:0.5;stroke-dasharray:none;stroke-opacity:1" />
      <rect
         x="38"
         y="36"
         width="7"
         height="5"
         rx="1.2"
         fill="#00e5ff"
         id="rect44"
         style="stroke:#2b39f0;stroke-width:0.5;stroke-dasharray:none;stroke-opacity:1" />
      <rect
         x="47"
         y="36"
         width="10"
         height="5"
         rx="1.2"
         fill="#aaff00"
         id="rect45"
         style="stroke:#2b39f0;stroke-width:0.5;stroke-dasharray:none;stroke-opacity:1" />
      <rect
         x="59"
         y="36"
         width="4"
         height="5"
         rx="1.2"
         fill="#ffe500"
         id="rect46"
         style="stroke:#2b39f0;stroke-width:0.5;stroke-dasharray:none;stroke-opacity:1" />
      <rect
         x="1"
         y="43"
         width="10"
         height="5"
         rx="1.2"
         fill="#ff3b82"
         id="rect47"
         style="stroke:#2b39f0;stroke-width:0.5;stroke-dasharray:none;stroke-opacity:1" />
      <rect
         x="13"
         y="43"
         width="5"
         height="5"
         rx="1.2"
         fill="#cc00ff"
         id="rect48"
         style="stroke:#2b39f0;stroke-width:0.5;stroke-dasharray:none;stroke-opacity:1" />
      <rect
         x="20"
         y="43"
         width="8"
         height="5"
         rx="1.2"
         fill="#ffe500"
         id="rect49"
         style="stroke:#2b39f0;stroke-width:0.5;stroke-dasharray:none;stroke-opacity:1" />
      <rect
         x="30"
         y="43"
         width="6"
         height="5"
         rx="1.2"
         fill="#00e5ff"
         id="rect50"
         style="stroke:#2b39f0;stroke-width:0.5;stroke-dasharray:none;stroke-opacity:1" />
      <rect
         x="38"
         y="43"
         width="9"
         height="5"
         rx="1.2"
         fill="#ff6b00"
         id="rect51"
         style="stroke:#2b39f0;stroke-width:0.5;stroke-dasharray:none;stroke-opacity:1" />
      <rect
         x="49"
         y="43"
         width="5"
         height="5"
         rx="1.2"
         fill="#aaff00"
         id="rect52"
         style="stroke:#2b39f0;stroke-width:0.5;stroke-dasharray:none;stroke-opacity:1" />
      <rect
         x="56"
         y="43"
         width="7"
         height="5"
         rx="1.2"
         fill="#ff3b82"
         id="rect53"
         style="stroke:#2b39f0;stroke-width:0.5;stroke-dasharray:none;stroke-opacity:1" />
      <rect
         x="1"
         y="50"
         width="5"
         height="5"
         rx="1.2"
         fill="#00e5ff"
         id="rect54"
         style="stroke:#2b39f0;stroke-width:0.5;stroke-dasharray:none;stroke-opacity:1" />
      <rect
         x="8"
         y="50"
         width="8"
         height="5"
         rx="1.2"
         fill="#ff3b82"
         id="rect55"
         style="stroke:#2b39f0;stroke-width:0.5;stroke-dasharray:none;stroke-opacity:1" />
      <rect
         x="18"
         y="50"
         width="6"
         height="5"
         rx="1.2"
         fill="#ffe500"
         id="rect56"
         style="stroke:#2b39f0;stroke-width:0.5;stroke-dasharray:none;stroke-opacity:1" />
      <rect
         x="26"
         y="50"
         width="9"
         height="5"
         rx="1.2"
         fill="#00ffc8"
         id="rect57"
         style="stroke:#2b39f0;stroke-width:0.5;stroke-dasharray:none;stroke-opacity:1" />
      <rect
         x="37"
         y="50"
         width="5"
         height="5"
         rx="1.2"
         fill="#cc00ff"
         id="rect58"
         style="stroke:#2b39f0;stroke-width:0.5;stroke-dasharray:none;stroke-opacity:1" />
      <rect
         x="44"
         y="50"
         width="8"
         height="5"
         rx="1.2"
         fill="#aaff00"
         id="rect59"
         style="stroke:#2b39f0;stroke-width:0.5;stroke-dasharray:none;stroke-opacity:1" />
      <rect
         x="54"
         y="50"
         width="9"
         height="5"
         rx="1.2"
         fill="#ff6b00"
         id="rect60"
         style="stroke:#2b39f0;stroke-width:0.5;stroke-dasharray:none;stroke-opacity:1" />
      <rect
         x="1"
         y="57"
         width="8"
         height="6"
         rx="1.2"
         fill="#aaff00"
         id="rect61"
         style="stroke:#2b39f0;stroke-width:0.5;stroke-dasharray:none;stroke-opacity:1" />
      <rect
         x="11"
         y="57"
         width="6"
         height="6"
         rx="1.2"
         fill="#ff3b82"
         id="rect62"
         style="stroke:#2b39f0;stroke-width:0.5;stroke-dasharray:none;stroke-opacity:1" />
      <rect
         x="19"
         y="57"
         width="9"
         height="6"
         rx="1.2"
         fill="#00e5ff"
         id="rect63"
         style="stroke:#2b39f0;stroke-width:0.5;stroke-dasharray:none;stroke-opacity:1" />
      <rect
         x="30"
         y="57"
         width="5"
         height="6"
         rx="1.2"
         fill="#ffe500"
         id="rect64"
         style="stroke:#2b39f0;stroke-width:0.5;stroke-dasharray:none;stroke-opacity:1" />
      <rect
         x="37"
         y="57"
         width="8"
         height="6"
         rx="1.2"
         fill="#cc00ff"
         id="rect65"
         style="stroke:#2b39f0;stroke-width:0.5;stroke-dasharray:none;stroke-opacity:1" />
      <rect
         x="47"
         y="57"
         width="6"
         height="6"
         rx="1.2"
         fill="#ff3b82"
         id="rect66"
         style="stroke:#2b39f0;stroke-width:0.5;stroke-dasharray:none;stroke-opacity:1" />
      <rect
         x="55"
         y="57"
         width="8"
         height="6"
         rx="1.2"
         fill="#00ffc8"
         id="rect67"
         style="stroke:#2b39f0;stroke-width:0.5;stroke-dasharray:none;stroke-opacity:1" />
    </g>
    <rect
       width="64"
       height="64"
       rx="10"
       fill="url(#vig)"
       clip-path="url(#clip)"
       id="rect68"
       x="0"
       y="0"
       style="display:inline;fill:url(#vig)" />
    <g
       clip-path="url(#clip)"
       id="g75"
       style="display:inline;stroke:#ffffff;stroke-width:2;stroke-dasharray:none;stroke-opacity:1">
      <path
         d="M 28.7,25.4 V 7.8 l 6.6,-3.3 2.2,3.3 -2.2,17.6 z"
         fill="#ffffff"
         stroke="#000000"
         stroke-width="2.5"
         stroke-linejoin="round"
         id="path73"
         style="stroke:#ffffff;stroke-width:2;stroke-dasharray:none;stroke-opacity:1" />
      <path
         transform="rotate(120,32,32)"
         d="M 28.7,25.4 V 7.8 l 6.6,-3.3 2.2,3.3 -2.2,17.6 z"
         fill="#ffffff"
         stroke="#000000"
         stroke-width="2.5"
         stroke-linejoin="round"
         id="path74"
         style="stroke:#ffffff;stroke-width:2;stroke-dasharray:none;stroke-opacity:1" />
      <!-- Cutting edge score -->
      <path
         transform="rotate(-120,32,32)"
         d="M 28.7,25.4 V 7.8 l 6.6,-3.3 2.2,3.3 -2.2,17.6 z"
         fill="#ffffff"
         stroke="#000000"
         stroke-width="2.5"
         stroke-linejoin="round"
         id="path75"
         style="stroke:#ffffff;stroke-width:2;stroke-dasharray:none;stroke-opacity:1" />
    </g>
    <g
       clip-path="url(#clip)"
       id="g70"
       style="stroke-width:1.4;stroke-dasharray:none">
      <path
         d="M 28.7,25.4 V 7.8 l 6.6,-3.3 2.2,3.3 -2.2,17.6 z"
         fill="#ffffff"
         stroke="#000000"
         stroke-width="2.5"
         stroke-linejoin="round"
         id="path65"
         style="stroke-width:1.4;stroke-dasharray:none" />
      <path
         transform="rotate(120,32,32)"
         d="M 28.7,25.4 V 7.8 l 6.6,-3.3 2.2,3.3 -2.2,17.6 z"
         fill="#ffffff"
         stroke="#000000"
         stroke-width="2.5"
         stroke-linejoin="round"
         id="path66"
         style="stroke-width:1.4;stroke-dasharray:none" />
      <path
         transform="rotate(-120,32,32)"
         d="M 28.7,25.4 V 7.8 l 6.6,-3.3 2.2,3.3 -2.2,17.6 z"
         fill="#ffffff"
         stroke="#000000"
         stroke-width="2.5"
         stroke-linejoin="round"
         id="path67"
         style="stroke-width:1.4;stroke-dasharray:none" />
      <!-- Cutting edge score -->
    </g>
    <circle
       cx="32"
       cy="32"
       r="7.5"
       fill="#ffffff"
       id="circle70"
       style="stroke:#000000;stroke-opacity:1" />
    <circle
       cx="32"
       cy="32"
       fill="#222222"
       id="circle71"
       r="3.1218963"
       style="stroke-width:0.624379" />
    <circle
       cx="32"
       cy="32"
       r="2"
       fill="#ffffff"
       id="circle72" />
    <path
       id="path76"
       style="fill:none;stroke:#ffffff;stroke-width:1.3;stroke-linecap:round;paint-order:stroke fill markers"
       d="m 10.853938,36.634146 c -0.296371,-1.425999 -0.452132,-2.90353 -0.452132,-4.417441 0,-4.166689 1.179887,-8.057801 3.223778,-11.357451 m 25.572218,-9.012329 c 4.16197,1.470676 7.73854,4.180783 10.286244,7.686856 m -3.558367,29.192855 c -3.520065,2.97211 -8.003661,4.838904 -12.915461,5.065055 -0.334806,0.01542 -0.671602,0.02321 -1.010218,0.02321"
       sodipodi:nodetypes="csccccsc" />
    <path
       id="path77"
       style="fill:none;stroke:#ffffff;stroke-width:1.3;stroke-linecap:round;paint-order:stroke fill markers"
       d="M 7.267907,37.75244 C 6.8605932,35.94845 6.6455975,34.071567 6.6455975,32.14447 c 0,-6.94638 2.7934408,-13.240317 7.3182395,-17.819728 M 39.300709,7.8569403 c 7.605749,2.2830377 13.70833,8.0411037 16.463512,15.4299677 M 49.415339,50.571486 C 44.873208,54.865752 38.744103,57.498873 32,57.498873 c -2.273996,0 -4.478071,-0.299366 -6.574965,-0.860836"
       sodipodi:nodetypes="csccccsc" />
  </g>
</svg>
